<?xml version="1.0" encoding="UTF-8" standalone="no"?>
<!-- Generator: Adobe Illustrator 17.1.0, SVG Export Plug-In . SVG Version: 6.00 Build 0)  -->

<svg
   version="1.1"
   id="Layer_1"
   x="0px"
   y="0px"
   viewBox="0.6 1067.9 2043.5681 390.17262"
   enable-background="new 0.6 1067.9 90.3 109.1"
   xml:space="preserve"
   sodipodi:docname="logo_transparent_inkscape.svg"
   inkscape:version="1.1.2 (0a00cf5339, 2022-02-04)"
   width="2043.5682"
   height="390.17261"
   xmlns:inkscape="http://www.inkscape.org/namespaces/inkscape"
   xmlns:sodipodi="http://sodipodi.sourceforge.net/DTD/sodipodi-0.dtd"
   xmlns="http://www.w3.org/2000/svg"
   xmlns:svg="http://www.w3.org/2000/svg"
   xmlns:rdf="http://www.w3.org/1999/02/22-rdf-syntax-ns#"
   xmlns:cc="http://creativecommons.org/ns#"
   xmlns:dc="http://purl.org/dc/elements/1.1/"><metadata
   id="metadata3775"><rdf:RDF><cc:Work
       rdf:about=""><dc:format>image/svg+xml</dc:format><dc:type
         rdf:resource="http://purl.org/dc/dcmitype/StillImage" /></cc:Work></rdf:RDF></metadata><defs
   id="defs3773"><inkscape:path-effect
     effect="fillet_chamfer"
     id="path-effect2521"
     is_visible="true"
     lpeversion="1"
     satellites_param="F,0,0,1,0,87,0,1 @ F,0,0,1,0,87,0,1 @ F,0,0,1,0,87,0,1 @ F,0,0,1,0,87,0,1"
     unit="px"
     method="auto"
     mode="F"
     radius="87"
     chamfer_steps="1"
     flexible="false"
     use_knot_distance="true"
     apply_no_radius="true"
     apply_with_radius="true"
     only_selected="false"
     hide_knots="false" /><clipPath
     clipPathUnits="userSpaceOnUse"
     id="clipPath3668"><path
       id="path3670"
       style="fill:#ff0000;fill-opacity:1;fill-rule:nonzero;stroke:none;stroke-width:0.647913"
       d="m 90.887007,1067.6933 -90.16224862,0.01 v 80.8194 c 0.27774692,1.0945 0.59005452,2.1808 0.88334412,3.272 1.7540139,5.2026 3.6593588,10.3605 5.5124255,15.5323 0.7761731,2.1663 1.5507185,4.3326 2.32431,6.4996 0.3507374,0.9826 0.659009,1.9801 1.039691,2.9524 h 80.402478 v -28.6987 c -0.04603,0.1329 -0.06137,0.1708 -0.117257,0.3343 -0.227937,0.6667 -1.428385,4.2594 -1.731514,5.2336 -0.174698,0.5613 -0.329197,1.1284 -0.493783,1.6925 -0.10559,0.4621 -0.165479,0.5265 -0.134194,0.9402 0.0013,0.014 0.01641,-0.024 0.02475,-0.036 -0.0027,0.1869 0.01007,0.3744 -0.0078,0.5605 -0.01114,0.1162 -0.05443,0.2272 -0.07817,0.3417 -0.0083,0.04 -0.01521,0.08 -0.02215,0.1205 0.01968,0.01 0.02015,0.021 -0.0053,0.033 -0.006,0.034 -0.01334,0.069 -0.01954,0.1033 -0.06177,0.583 -0.28758,0.3546 -0.831233,0.2667 -0.63811,-0.1032 0.657595,-0.2762 0.850771,-0.37 0.002,-0.011 0.0033,-0.022 0.0053,-0.033 -0.02155,-0.01 -0.06217,-0.019 -0.15504,-0.025 -0.437316,-0.026 -0.58684,-0.049 -0.652739,-0.065 0.06017,0.03 0.113408,0.1027 -0.0573,0.2434 -0.04022,0.033 0.01221,-0.1003 0.01828,-0.15 0.0053,-0.029 0.01247,-0.067 0.01821,-0.1 0.02622,-0.1481 0.0567,-0.3195 0.09902,-0.4499 0.01841,-0.057 0.07563,-0.1055 0.07296,-0.1647 -0.0047,-0.1023 -0.08433,-0.1917 -0.0938,-0.2938 -0.03969,-0.4275 0.06691,-0.7104 0.164159,-1.132 0.166907,-0.5716 0.323267,-1.1458 0.5003,-1.7146 0.305397,-0.9814 1.50826,-4.58 1.738025,-5.252 0.640438,-1.8732 0.58361,-1.5842 0.908099,-2.5505 v -27.7264 c -0.437083,-1.1559 -0.885519,-2.3085 -1.399281,-3.4366 -0.08482,-0.1863 -0.190875,-0.3625 -0.285325,-0.5445 -0.131339,-0.2533 -0.262838,-0.5068 -0.392162,-0.7609 -0.07159,-0.1406 -0.140858,-0.2827 -0.211067,-0.424 -0.218958,-0.4407 -0.006,-0.7363 0.269695,-0.724 0.100888,0 0.208812,0.056 0.308779,0.1512 -0.03002,-0.227 0.09843,-0.394 0.29966,-0.4056 0.156508,-0.01 0.348049,0.073 0.522447,0.2839 0.372144,0.4506 0.305537,0.3454 0.673585,0.9219 0.07505,0.1176 0.153306,0.2342 0.213669,0.3589 z m -1.35889,45.0398 c 0.01241,0.025 0.02388,0.05 0.03649,0.075 0.12759,0.2507 0.257355,0.5012 0.386946,0.751 0.09378,0.1808 0.19976,0.3559 0.284024,0.5408 0.04496,0.099 0.08622,0.1985 0.130291,0.2975 -0.05497,-0.2327 -0.09705,-0.4672 -0.198039,-0.6896 -0.05457,-0.1201 -0.129791,-0.2306 -0.20064,-0.3429 -0.239251,-0.3793 -0.3104,-0.4759 -0.439064,-0.6318 z m 1.151732,1.7638 c -0.0513,-0.015 -0.07985,0.034 -0.06905,0.193 0.0053,0.075 0.004,0.1507 0.01434,0.2249 -0.02615,-0.036 -0.05163,-0.072 -0.07817,-0.1081 0.116263,0.2689 0.228904,0.5392 0.340051,0.8099 v -0.9267 c -0.08185,-0.098 -0.155867,-0.1777 -0.207158,-0.193 z m -0.0547,0.4192 c 0.0086,0.012 0.01781,0.024 0.02608,0.036 -0.006,0 -0.02341,-0.017 -0.02475,-0.026 -5.14e-4,0 -6.67e-4,-0.01 -0.0013,-0.01 z M 0.72475838,1154.313 v 22.4622 H 8.7100231 c -0.2961779,-0.8111 -0.5552002,-1.6351 -0.8455614,-2.4484 -0.7733447,-2.1664 -1.5470896,-4.3328 -2.3230091,-6.4984 -1.6130493,-4.5019 -3.2621735,-8.9946 -4.81669422,-13.5154 z" /></clipPath><clipPath
     clipPathUnits="userSpaceOnUse"
     id="clipPath3972"><path
       id="path3974"
       style="fill:#ff0000;fill-opacity:1;fill-rule:nonzero;stroke:none"
       d="m -2.4332031,1134.2633 v 267.8574 H 422.16836 V 1134.2633 H 266.77969 c 0.37594,2.1488 0.17021,1.2481 0.62304,4.125 0.28712,1.8241 0.69064,3.6298 0.94336,5.459 0.12191,0.8824 0.18049,1.7721 0.27149,2.6582 -0.0157,0.4565 -0.0169,0.914 -0.0254,1.3711 0.0909,0.5265 0.16831,1.055 0.24219,1.5839 0.0498,-0.039 0.10567,-0.09 0.15624,-0.1308 0.005,-0.6049 0.0118,-1.2094 -0.002,-1.8145 -0.014,-0.616 -0.0449,-0.8491 -0.0469,-1.5097 -6e-4,-0.2413 0.0135,-0.4833 0.0195,-0.7246 0.0576,-0.1873 0.12262,-0.3727 0.18555,-0.5586 -0.0871,-0.2178 -0.17462,-0.4346 -0.26172,-0.6524 -1.54359,-3.8589 0.14447,-6.3522 2.31445,-6.3808 1.48472,-0.02 3.19386,1.1154 4.25,3.7558 0.11786,0.2946 0.25841,0.58 0.35351,0.8828 0.38703,1.2322 0.61029,2.4594 0.21094,3.7246 0.072,1.2261 0.0557,2.4602 0.0488,3.6875 -0.009,1.0785 -0.005,2.1564 -0.004,3.2344 0.0707,0.1153 0.0966,0.1156 0.2129,0.3086 0.1188,0.1973 0.24373,0.3925 0.33593,0.6035 0.26792,0.6133 0.29918,1.0046 0.46289,1.6035 0.10466,0.154 0.26328,0.2989 0.29688,0.4922 0.0255,0.1469 0.002,0.2982 0.002,0.4473 0.003,1.2374 -1.26932,-1.612 -1.19141,-0.377 0.008,0.1187 0.006,0.2397 0.0215,0.3575 -0.0548,-0.08 -0.0945,-0.1682 -0.14258,-0.252 v 0.018 c 0.69813,1.7074 1.33278,3.4387 1.94922,5.1777 0.12685,0.3847 0.27896,0.7622 0.38086,1.1543 0.36482,1.4039 0.68698,2.8181 1.01758,4.2305 0.28186,1.204 0.58617,2.4044 0.81836,3.6191 0.3234,1.6918 0.82213,4.8346 0.98047,6.793 0.0905,1.1193 0.12645,2.2421 0.18945,3.3633 0.0685,3.1088 0.0902,2.0434 -0.12695,6.0937 -0.15968,2.9787 -0.27405,3.8661 -0.68164,7.0977 -0.1155,0.9156 -0.21348,1.8361 -0.38868,2.7422 -0.25605,1.3242 -0.6029,2.6287 -0.90429,3.9433 -0.23603,0.8519 -0.45211,1.7102 -0.70703,2.5567 -1.46621,4.8678 -0.8744,2.6711 -2.16797,6.6816 -0.3417,1.0594 -2.14129,6.7684 -2.59571,8.3164 -0.26189,0.892 -0.4935,1.7931 -0.74023,2.6895 -0.15829,0.7344 -0.24807,0.8366 -0.20117,1.4941 0.002,0.022 0.0246,-0.038 0.0371,-0.057 -0.004,0.2969 0.0151,0.5948 -0.0117,0.8906 -0.0167,0.1846 -0.0816,0.3611 -0.11719,0.543 -0.0124,0.063 -0.0228,0.1277 -0.0332,0.1914 -0.0323,-0.016 -0.0932,-0.03 -0.23242,-0.039 -0.65558,-0.042 -0.87973,-0.078 -0.97852,-0.1035 0.0902,0.048 0.16917,0.1632 -0.0859,0.3867 -0.0603,0.053 0.0183,-0.1593 0.0274,-0.2383 0.008,-0.046 0.0187,-0.1063 0.0273,-0.1582 0.0393,-0.2353 0.085,-0.5075 0.14844,-0.7148 0.0276,-0.09 0.11337,-0.1677 0.10937,-0.2617 -0.007,-0.1626 -0.12642,-0.3047 -0.14062,-0.4668 -0.0595,-0.6794 0.1003,-1.1289 0.24609,-1.7988 0.25021,-0.9083 0.48461,-1.8208 0.75,-2.7247 0.45782,-1.5595 2.26103,-7.2778 2.60547,-8.3457 1.29614,-4.0185 0.67666,-1.7417 2.14844,-6.621 0.24992,-0.8286 0.4619,-1.6681 0.69336,-2.502 0.29493,-1.2798 0.6349,-2.5485 0.88476,-3.8379 0.17359,-0.8957 0.27034,-1.8057 0.38477,-2.7109 0.18649,-1.4754 0.2215,-2.269 0.31054,-3.209 -0.0965,0.07 -0.19706,0.1486 -0.30273,0.2383 0.0885,1.3799 -1.05299,1.9507 -1.90625,1.0488 -0.0766,0.084 -0.13281,0.092 -0.20508,0.1602 0.005,0.3666 0.0114,0.7331 0.0137,1.0996 -0.0176,0.4384 0.033,0.883 -0.0566,1.3164 -0.021,0.1018 -0.0614,0.1968 -0.0918,0.2968 0.0199,-0.055 0.0406,-0.111 0.0605,-0.166 0.002,0 0.006,-0.012 0.006,-0.012 -0.009,0.098 -0.0344,0.4133 -0.0781,0.541 -0.0891,0.2602 -0.13342,0.3557 -0.19531,0.4629 0.0304,-0.057 0.0415,-0.1001 0.043,-0.1386 -0.0685,0.128 -0.20174,0.2043 -0.40625,0.291 -0.003,0.4447 0.009,0.8894 0.008,1.334 10e-4,1.8161 0.005,3.633 0.004,5.4492 3e-4,0.268 -6.6e-4,0.5347 0,0.8027 0.0148,5.9948 -5.16952,6.8622 -6.66797,2.5918 9e-5,2.7162 -0.003,5.4326 -0.002,8.1485 1.2e-4,1.2828 -0.002,2.5648 -0.002,3.8476 -0.004,16.5983 -14.06116,19.2654 -18.59961,8.0234 -0.042,2.1044 -0.0913,4.2085 -0.13672,6.3125 -0.0196,4.5218 0.32056,9.0274 0.62305,13.5332 5.10642,-0.4856 3.66811,-0.1782 0.0176,0.4083 0.0356,0.5582 0.0738,1.1166 0.0762,1.6757 0.002,0.5922 0.50858,1.6974 -0.0781,1.7754 -6.54802,0.8678 -13.19953,0.5779 -19.79883,0.8672 -13.97274,0.6125 10.68563,-2.854 19.80078,-4.3183 -0.009,-0.1354 -0.008,-0.2711 -0.0176,-0.4063 -0.19235,0.018 -0.13179,0.01 -0.3418,0.025 -6.51621,0.6331 -13.0709,0.9528 -19.54883,1.9004 -0.0182,0 -0.0154,0.039 -0.0293,0.049 1.5e-4,0.3048 -0.0217,0.6124 0.0293,0.9121 0.0507,0.2975 -0.25685,-0.7487 -0.0293,-0.9121 -4e-5,-0.087 -0.002,-0.1734 -0.008,-0.2598 -0.05,-0.732 -0.1241,-1.4621 -0.18359,-2.1933 -1.57145,1.6171 -3.55377,2.6658 -6.14063,2.4843 -4.06749,-0.2854 -6.76473,-4.4821 -10.07226,-6.9336 -5.24051,4.5225 -12.44901,3.806 -17.08203,-2.1777 0.0455,0.2491 0.11702,0.4845 0.14648,0.7422 0.007,0.059 0.0249,0.1919 0.0312,0.2578 0.006,0.019 0.01,0.042 0.0156,0.061 0.0242,0.046 0.0684,0.1081 0.0898,0.1524 0.81197,1.6788 0.85966,3.6286 1.28906,5.4433 6.06619,25.6366 -30.42069,-19.6846 -28.97656,-2.5429 0.0138,-0.3267 0.0505,-1.1905 0.13281,-0.8965 1.03262,3.6878 1.84993,7.4312 2.75586,11.1523 1.83879,2.444 4.97417,5.5518 0.13867,0.584 -0.0479,-0.1942 -0.0914,-0.3896 -0.13867,-0.584 -0.37315,-0.4959 -0.71133,-0.9723 -0.89844,-1.3398 -0.29587,-0.5811 -0.47402,-1.2054 -0.62304,-1.8418 -0.30646,-0.6541 -0.69416,-1.5281 -0.8418,-1.9844 -0.0181,-0.056 -0.024,-0.1032 -0.041,-0.1582 0.27298,0.6042 0.53864,1.2113 0.80469,1.8184 -0.19486,-0.9194 -0.32882,-1.8621 -0.56055,-2.7676 -0.40985,-1.6019 -0.63751,-2.904 -0.72851,-3.9805 -4.3e-4,0.01 -0.002,0.014 -0.002,0.02 -0.0271,0.6427 -0.007,1.1813 0.006,1.7383 -0.0773,-1.4343 -0.16475,-2.8681 -0.40821,-4.2813 -0.24213,-1.4055 -0.0448,2.8631 0.13867,4.2774 0.0233,0.1797 0.14025,0.3755 0.27344,0.5722 -0.0114,-0.1783 0.001,-0.3849 -0.004,-0.5664 0.0111,0.2053 0.0278,0.4101 0.0391,0.6153 -0.0116,-0.017 -0.0238,-0.032 -0.0352,-0.049 0.017,0.2655 0.0456,0.5479 0.082,0.8144 -0.0158,-0.2545 -0.0329,-0.5089 -0.0469,-0.7636 0.30809,0.4442 0.68528,0.8772 0.33008,1.082 -0.10055,0.058 -0.17603,0.037 -0.24024,-0.014 0.0786,0.4689 0.18963,0.9553 0.35156,1.4785 -0.1121,-0.2482 -0.22188,-0.4972 -0.33203,-0.7461 -0.0207,-0.2492 -0.0283,-0.5003 -0.0449,-0.75 -0.24559,-0.2531 -0.25511,-1.2024 -0.42773,-1.6426 -0.97562,-2.4879 -0.79472,-1.9669 -1.29492,-3.5566 -0.91151,-2.7987 -1.71327,-5.4717 -2.29883,-8.3809 -0.50467,-2.5071 0.68826,1.4065 -0.28321,-2.4394 -0.25237,-0.9991 -0.61585,-1.9678 -0.92382,-2.9512 -0.43165,-1.6124 -0.90566,-3.2148 -1.29493,-4.8379 -3.19334,-2.3423 -6.98466,-6.3724 -10.45703,-9.5468 -1.19997,-0.1639 -2.57306,-0.5426 -3.55468,-0.8106 -1.79831,-0.4331 0.87979,0.1353 3.125,0.4375 -3.31778,-2.984 -6.31316,-5.0991 -8.14258,-4.0098 0.73889,0.9987 1.49113,1.9899 2.19922,3.0079 -1.30113,-1.2365 -2.00161,-1.8791 -2.51758,-2.4063 0.0326,0.5667 0.0188,-0.053 0.0703,0.3828 0.0216,0.1822 0.0322,0.366 0.0488,0.5488 6.3e-4,0.037 0.002,0.073 0.002,0.1094 0.18703,0.364 0.357,0.7373 0.53516,1.1055 0.0565,0.1151 0.11002,0.2324 0.16992,0.3457 0.17646,0.3342 0.19104,0.3341 0.35547,0.6152 0.32636,0.5581 0.64671,1.1198 0.97656,1.6758 1.01989,1.7469 2.21899,3.3768 3.40039,5.0156 1.71373,2.4628 3.74841,4.6733 5.73828,6.9102 1.25226,1.4086 1.06763,1.1484 2.34375,2.8594 0.26419,0.3542 0.5218,0.7141 0.76367,1.0839 0.65866,1.0071 0.81628,1.3204 1.33789,2.2559 1.70465,3.0568 -1.39616,4.7797 -3.08984,1.7168 -0.43787,-0.7918 -0.59032,-1.0907 -1.14258,-1.9414 -0.21234,-0.3271 -0.43794,-0.6455 -0.66992,-0.959 -1.17253,-1.5845 -0.97546,-1.3049 -2.18555,-2.666 -2.07016,-2.3271 -4.17963,-4.6297 -5.96289,-7.1914 -1.24295,-1.7244 -2.50153,-3.443 -3.57422,-5.2813 -0.0405,-0.068 -0.0806,-0.1367 -0.12109,-0.205 0.12467,0.793 0.27166,1.5802 0.50781,2.3457 0.27424,0.8889 2.14384,2.0206 1.32227,2.457 -0.82235,0.4369 -1.11841,-1.5246 -1.41797,-2.4063 -0.38139,-1.1225 -0.69661,-2.0813 -0.94726,-2.9511 -0.002,0.2151 10e-4,0.4413 -0.002,0.6543 -0.005,-0.2609 -0.0345,-0.5219 -0.0312,-0.7832 -0.0443,-0.1564 -0.0589,-0.2931 -0.0976,-0.4453 -0.29874,-0.5151 -0.58966,-1.0352 -0.85743,-1.5665 -0.15565,-0.3225 -0.30024,-0.6576 -0.46484,-0.9765 -0.20971,-0.4063 -0.43216,-0.8107 -0.54687,-1.2578 -0.17251,-0.5297 -0.34566,-1.0621 -0.48633,-1.6016 0.0131,0.059 0.03,0.1649 0.043,0.2227 0.45954,2.0544 1.03333,4.0805 1.55078,6.1211 2.62944,8.2672 5.48574,16.4633 8.26367,24.6816 1.16356,3.4423 2.32468,6.8846 3.48437,10.3281 0.58974,1.7512 1.09103,3.5357 1.76563,5.2559 0.54746,1.3961 1.26255,2.7203 1.89453,4.0801 0.85776,1.248 1.00049,1.5095 1.93555,2.666 0.5595,0.692 0.56407,0.3638 0.90234,1.5234 0.17646,0.6049 0.0497,0.9402 -0.0801,1.4844 0.0911,0.2004 0.13799,0.3682 0.20508,0.6894 0.37533,1.7964 -2.05268,0.1418 -2.66992,-0.09 0.13199,0.2491 0.27952,0.4826 0.34765,0.627 0.0231,0.049 -0.11859,-0.1132 -0.14648,-0.1445 -0.42526,-0.4777 -0.41628,-0.5622 -0.20117,-0.4825 -0.22091,-0.417 -0.38482,-0.8929 0.0371,-1.1777 0.0254,-0.038 0.0338,-0.097 0.0762,-0.1133 0.0299,-0.011 0.0657,0.086 0.0801,0.057 0.17657,-0.3503 -0.43854,-0.7321 -0.53321,-0.8496 -1.12108,-1.3928 -1.17645,-1.5652 -2.2207,-3.1406 -0.66567,-1.4445 -1.41722,-2.8533 -1.99804,-4.334 -0.67448,-1.7191 -1.17429,-3.4999 -1.76368,-5.25 -1.15932,-3.4425 -2.31924,-6.885 -3.48242,-10.3262 -2.79886,-8.2802 -5.68214,-16.5373 -8.31836,-24.8711 -0.52758,-2.0861 -1.1151,-4.156 -1.58398,-6.2558 -0.93528,-4.1886 -2.18883,-11.6379 -2.62891,-15.5274 -0.19004,-1.6799 -0.15916,-3.3772 -0.22656,-5.0664 -0.25414,-6.3675 -0.22656,-4.4186 -0.22656,-8.5781 0,-1.1908 0.5849,-1.7756 1.18554,-1.8203 0.36111,-1.2843 1.12707,-1.9072 1.85157,-1.9434 0.33071,-0.016 0.64597,0.099 0.91406,0.3145 -2e-5,-0.334 4e-5,-0.668 0,-1.002 2e-5,-1.3853 10e-4,-2.7729 0,-4.1582 -0.003,-1.4002 -0.005,-2.7991 0.0117,-4.1992 -0.009,-0.3014 -0.0223,-0.6028 -0.0293,-0.9043 -0.0173,-0.7277 -0.0198,-1.4561 -0.0117,-2.1836 -0.94536,-1.558 -1.70545,-3.211 -2.58594,-5.2832 0.40039,-3.51 1.34871,-6.9995 1.20118,-10.5293 -0.0766,-1.8327 -1.21464,3.4934 -1.41797,5.3164 -0.11936,1.0701 0.38205,2.122 0.46875,3.1953 0.0347,0.4299 -0.20456,-0.8363 -0.3125,-1.2539 -0.27424,-1.0608 -0.55104,-2.123 -0.83399,-3.1816 -0.33603,-1.2571 -0.68239,-2.5119 -1.02343,-3.7676 -1.57124,-5.7848 -1.48907,-10.6758 -0.3418,-14.5371 z m 272.0195331,8.9433 c -0.0246,-0.035 -0.30493,0.6574 -0.37695,0.92 -0.0333,0.1212 -0.0525,0.3356 -0.0488,0.5507 0.15737,-0.4645 0.31653,-0.9296 0.41992,-1.4082 0.008,-0.038 0.009,-0.057 0.006,-0.062 z m -0.41992,1.5684 c 0.009,0.1631 0.0305,0.3209 0.0801,0.4277 0.0351,0.075 -0.005,-0.167 -0.008,-0.25 -0.0238,-0.059 -0.0485,-0.1183 -0.0723,-0.1777 z m -0.93555,0.6621 c -0.004,0.01 -0.005,0.037 0.002,0.098 0.0809,0.7073 0.20299,1.4094 0.32422,2.1113 0.004,-0.2433 0.0246,-0.5365 0.0117,-0.6895 -0.0356,-0.4241 -0.30751,-1.5651 -0.33789,-1.5195 z m -117.17383,0.375 v 0 c -0.46228,0.014 -0.68816,0.1023 -0.37109,0.3574 1.07992,0.869 2.22495,1.6483 3.40234,2.3828 -0.15931,-0.8773 -0.27724,-1.7609 -0.42187,-2.6406 -0.5688,0.01 -1.39412,-0.063 -2.08008,-0.092 -0.19549,-0.01 -0.37521,-0.013 -0.5293,-0.01 z m 125.14258,10.6211 c 0.0129,0.019 0.0267,0.038 0.0391,0.057 -0.009,0 -0.0351,-0.027 -0.0371,-0.041 -7.7e-4,-0.01 5e-5,-0.011 -0.002,-0.016 z m -136.79883,0.1797 c -0.21983,1.5312 -0.44233,3.1372 -0.30273,4.7012 0.18797,0.3331 0.38234,0.6629 0.57422,0.9941 0.0163,-0.2623 0.0161,-0.525 0.0391,-0.7871 0.0334,-0.1841 0.0231,-0.2621 0.0703,0.01 0.0548,0.312 0.0433,0.6652 0.0293,1.0195 0.47528,0.8171 0.94376,1.6375 1.41406,2.4571 0.47955,0.3181 0.99769,0.5777 1.49219,0.873 0.47498,-1.0465 1.00754,-2.0037 1.59375,-2.8633 -1.63677,-2.1347 -3.27353,-4.2694 -4.91016,-6.4043 z m 137.38477,3.4883 c 0.003,0.014 0.0119,0.082 0.0176,0.1308 -0.01,-0.068 -0.0195,-0.1404 -0.0176,-0.1308 z m -137.56836,1.7031 c -0.0246,-0.01 -0.0428,-4e-4 -0.0566,0.018 0.0842,0.5834 0.22926,1.1578 0.44922,1.7187 0.01,-0.3433 0.0315,-0.6862 0.0508,-1.0293 -0.2283,-0.4726 -0.36925,-0.6803 -0.44336,-0.707 z m 0.58789,1.0254 c -0.0177,0.6234 0.0118,1.2162 0.4668,1.5449 0.0754,0.054 0.15646,0.1006 0.23242,0.1543 -0.29164,-0.7524 -0.51911,-1.3011 -0.69922,-1.6992 z m 1.08203,3.4043 c 0.45606,0.8889 0.80118,1.5022 0.58203,0.8906 -0.0491,-0.1369 -0.0741,-0.1959 -0.12109,-0.3262 -0.15782,-0.1884 -0.31489,-0.3771 -0.46094,-0.5644 z m 95.81445,10.4082 c -0.31537,1.5091 -0.66375,3.0119 -0.92187,4.5312 -0.33174,1.9528 -0.58228,3.9178 -0.87305,5.877 -0.173,1.3711 -0.39196,2.7371 -0.51758,4.1133 -0.24998,2.7387 -0.33,4.1112 -0.38086,5.414 0.78134,-6.6599 1.63718,-13.3113 2.69336,-19.9355 z m 36.04492,47.1269 c -0.009,0.055 -0.02,0.1095 -0.0293,0.1641 -0.0926,0.9265 -0.43111,0.5635 -1.2461,0.4238 -0.95659,-0.164 0.9858,-0.4388 1.27539,-0.5879 z m -77.99023,10.5899 c -0.19178,-0.2017 0.81457,0.9793 1.85937,2.3183 -0.0238,-0.1168 -0.044,-0.2347 -0.0684,-0.3515 -1.15673,-1.268 -1.67741,-1.8473 -1.79102,-1.9668 z" /></clipPath></defs><sodipodi:namedview
   pagecolor="#ffffff"
   bordercolor="#666666"
   borderopacity="1"
   objecttolerance="10"
   gridtolerance="10"
   guidetolerance="10"
   inkscape:pageopacity="0"
   inkscape:pageshadow="2"
   inkscape:window-width="2520"
   inkscape:window-height="1380"
   id="namedview3771"
   showgrid="false"
   inkscape:zoom="0.5"
   inkscape:cx="416"
   inkscape:cy="27"
   inkscape:window-x="20"
   inkscape:window-y="20"
   inkscape:window-maximized="0"
   inkscape:current-layer="layer4"
   fit-margin-top="0"
   fit-margin-left="0"
   fit-margin-right="0"
   fit-margin-bottom="0"
   inkscape:pagecheckerboard="true"
   width="2200px" />

<g
   inkscape:groupmode="layer"
   id="layer4"
   inkscape:label="background"
   style="display:inline"
   transform="translate(-57.221922,-50.19314)"><path
     style="fill:#ffffff;stroke:#000000;stroke-width:10;stroke-linecap:butt;stroke-linejoin:miter;stroke-miterlimit:4;stroke-dasharray:none;stroke-opacity:1"
     id="rect961"
     width="2033.5682"
     height="380.17261"
     x="62.821922"
     y="1123.0931"
     inkscape:path-effect="#path-effect2521"
     d="M 149.82192,1123.0931 H 2009.3902 a 87,87 45 0 1 87,87 v 206.1726 a 87,87 135 0 1 -87,87 H 149.82192 a 87,87 45 0 1 -86.999998,-87 l 0,-206.1726 a 87,87 135 0 1 86.999998,-87 z"
     sodipodi:type="rect" /></g><g
   inkscape:groupmode="layer"
   id="layer2"
   inkscape:label="text"
   transform="translate(-57.643957,2.0094074)"
   style="display:inline"><text
     xml:space="preserve"
     style="font-style:normal;font-weight:normal;font-size:40px;line-height:1.25;font-family:sans-serif;letter-spacing:0px;word-spacing:0px;fill:#000000;fill-opacity:1;stroke:none"
     x="549.0719"
     y="1331.8345"
     id="text4078"><tspan
       sodipodi:role="line"
       x="549.0719"
       y="1331.8345"
       id="tspan4076"><tspan
         x="549.0719"
         y="1331.8345"
         style="font-size:266.667px;font-family:'Gillius ADF';-inkscape-font-specification:'Gillius ADF'"
         id="tspan4074">TorchExplorer</tspan></tspan></text></g><g
   inkscape:groupmode="layer"
   id="layer1"
   inkscape:label="torch"
   transform="translate(-57.643957,2.0094074)"
   style="display:inline"><g
     id="g3768"
     transform="matrix(1.3491888,0,0,1.4301398,236.71052,-417.30971)">
	<path
   d="m 77.6,1099.6 -8.1,8.1 c 13.3,13.3 13.3,34.7 0,47.8 -13.3,13.3 -34.7,13.3 -47.8,0 -13.3,-13.3 -13.3,-34.7 0,-47.8 v 0 l 21.1,-21.1 3,-3 v 0 -15.9 L 14,1099.5 c -17.7,17.7 -17.7,46.3 0,64 17.7,17.7 46.3,17.7 63.7,0 17.6,-17.7 17.6,-46.1 -0.1,-63.9 z"
   id="path3764"
   inkscape:connector-curvature="0"
   style="fill:#ee4c2c"
   clip-path="url(#clipPath3668)" />
	<circle
   cx="61.700001"
   cy="1091.8"
   r="5.9000001"
   id="circle3766"
   style="fill:#ee4c2c" />
</g></g><g
   inkscape:groupmode="layer"
   id="layer3"
   inkscape:label="map"
   style="display:inline"
   transform="translate(-57.221922,-50.19314)"><path
     style="fill:none;stroke:#000000;stroke-width:22;stroke-linecap:butt;stroke-linejoin:miter;stroke-miterlimit:4;stroke-dasharray:none;stroke-opacity:1"
     d="m 415.06557,1289.6066 c 0,0 -18.12801,-4.6852 -36.24053,-0.8054 -5.14862,1.1028 -10.29599,2.8978 -15.02537,5.6891 -23.18386,13.3354 -33.04459,33.6466 -70.48045,49.3826 -39.00449,16.3954 -61.775,-5.6137 -89.92458,5.2635 -28.41474,11.1425 -39.65755,34.6586 -39.65755,34.6586 L 11.299825,1240.4557 c 0,0 12.507694,-22.8707 39.066283,-35.1622 26.20504,-11.9378 46.170826,6.7867 85.610862,-8.5313 40.9714,-15.9127 26.87166,-38.0034 51.77427,-47.4326 16.85839,-6.3832 39.75895,-3.5153 52.79483,-0.9963 6.22025,1.2019 10.19446,2.3244 10.19446,2.3244 z"
     id="path4660-7"
     inkscape:connector-curvature="0"
     sodipodi:nodetypes="cscsccccscscc"
     clip-path="url(#clipPath3972)"
     transform="translate(89.244019,66.0945)" /></g></svg>
